<svg xmlns="http://www.w3.org/2000/svg" width="24" height="24" viewBox="0 0 24 24"><g transform="translate(-192 -892)"><rect width="24" height="24" rx="4" transform="translate(192 892)" fill="#1c61be"/><g transform="translate(196 896)"><rect width="16" height="16" fill="none"/><path d="M13,0H3A2.006,2.006,0,0,0,1,2V14a2.006,2.006,0,0,0,2,2h7.1L15,11.33V2A2.006,2.006,0,0,0,13,0ZM9,10v4H3V2H13v8Z" fill="#fff"/><rect width="6" height="1" transform="translate(5 4)" fill="#fff"/><rect width="6" height="1" transform="translate(5 7)" fill="#fff"/><rect width="2" height="1" transform="translate(5 10)" fill="#fff"/></g></g></svg>