<svg xmlns="http://www.w3.org/2000/svg" width="38.526" height="44" viewBox="0 0 38.526 44"><path d="M38.085,55.93c0-1.412,8.528-2.556,14.7-2.556s13.969,1.144,13.969,2.556-7.794,2.557-13.969,2.557-14.7-1.145-14.7-2.557" transform="translate(-32.224 -14.487)" fill="#9fa0a0"/><path d="M37.836,30.727c0,6.259,3.766,12.314,9.263,14.567.167.068.132.259-.048.265A14.683,14.683,0,0,1,32,30.969,15.149,15.149,0,0,1,46.706,16.106c.179,0,.224.184.063.262a15.641,15.641,0,0,0-8.932,14.359" transform="translate(-32 -13.114)" fill="#82c1ea"/><path d="M48.212,43.975A15.663,15.663,0,0,1,40.155,25.3c.057-.172.255-.147.269.034a13.44,13.44,0,0,0,4.45,9.216,12.84,12.84,0,0,0,19.1-16.919c-.1-.144.02-.284.177-.2,6.3,3.36,8.432,12.294,5.05,19.231a15.718,15.718,0,0,1-20.99,7.318" transform="translate(-32.274 -13.162)" fill="#82c1ea"/><path d="M62.56,20.782c0,3.969-3.52,8.1-9.366,7.89-.172-.007-.22-.192-.061-.26a7.055,7.055,0,0,0,3.934-8.7,7.869,7.869,0,0,0-8.3-5.3c-.178.019-.212-.178-.055-.263A11.436,11.436,0,0,1,53.844,13c4.824,0,8.716,3.493,8.716,7.782" transform="translate(-32.612 -13)" fill="#ec6d74"/><path d="M60.821,28.118a9.334,9.334,0,0,0,3.233-4.924c.047-.17.247-.141.265.035.446,4.1-.561,7.624-3.515,10.285a10.583,10.583,0,0,1-14.946-.784,10.42,10.42,0,0,1,.213-14.265c.12-.117.286-.04.235.119A8.858,8.858,0,0,0,48,27a9.1,9.1,0,0,0,12.825,1.122" transform="translate(-32.41 -13.199)" fill="#82c1ea"/></svg>