<?xml version="1.0" encoding="utf-8"?>
<!-- Generator: Adobe Illustrator 27.0.0, SVG Export Plug-In . SVG Version: 6.00 Build 0)  -->
<svg version="1.1" id="b" xmlns="http://www.w3.org/2000/svg" xmlns:xlink="http://www.w3.org/1999/xlink" x="0px" y="0px"
	 viewBox="0 0 167.6 40.5" style="enable-background:new 0 0 167.6 40.5;" xml:space="preserve">
<style type="text/css">
	.st0{fill:#002C66;}
</style>
<g>
	<path class="st0" d="M101.7,9.3v11.6H99v1.7h17.8v-1.7H114V9.3H101.7z M112.3,17h-8.9v-2.2h8.9V17z M112.3,11v2.2h-8.9V11H112.3z
		 M103.4,18.7h8.9v2.2h-8.9V18.7z"/>
	<path class="st0" d="M8.7,0H7v3H0v20.1h1.7V22H14v1.1h1.7V3h-7V0z M14,20.3H1.7v-4.1h11.1v-1.7H1.7v-4.1h11.1V8.8H1.7V4.7H14V20.3z
		"/>
	<path class="st0" d="M32.6,21.8v-1.7l-3.4,0.4v-1.4h3.4v-1.7h-3.4V16h3.4V7.6h-3.4V6.1h3.4V4.5h-3.4V3c1-0.2,2.4-0.4,3.4-0.7V0.6
		c-1.7,0.6-6.5,1.3-8.9,1.4v1.7c1,0,2.4-0.1,3.9-0.3v1.2h-3.4v1.7h3.4v1.4h-3.4V16h3.4v1.4h-3.4v1.7h3.4v1.6l-3.9,0.5v1.7L32.6,21.8
		z M29.3,14.3v-1.7h1.7v1.7H29.3z M30.9,9.3V11h-1.7V9.3H30.9z M27.6,9.3V11h-1.7V9.3H27.6z M25.9,14.3v-1.7h1.7v1.7H25.9z"/>
	<path class="st0" d="M56.6,23.6h1.7v-4h8.1v-1.7h-8.1v-2.2h6.5V5.9h-6.5V3.7h6.9V2h-6.9V0h-1.7v2h-6.9v1.7h6.9v2.2h-6.5v9.9h6.5
		v2.2h-8.1v1.7h8.1V23.6z M63.1,7.6v6.5h-4.8v-2.4h3.6V10h-3.6V7.6H63.1z M56.6,7.6V10h-4.8V7.6H56.6z M51.8,14.1v-2.4h4.8v2.4H51.8
		z"/>
	<rect x="129.7" y="8.1" class="st0" width="5.8" height="1.7"/>
	<polygon class="st0" points="86.4,0 85,0 79.3,6 79.3,8.4 85.7,1.7 92.1,8.4 92.1,6 	"/>
	<path class="st0" d="M86.7,15.8h4.2V8.3h-4.3V6.6h2V4.9h-5.8v1.7h2v1.7h-4.3v7.5h4.2c-0.6,2-3.1,4.3-5.4,5.3v1.8
		c1.6-0.6,3.4-1.7,4.7-3.1c0.7-0.7,1.2-1.4,1.6-2.1c0.4,0.7,1,1.4,1.6,2.1c1.4,1.4,3.1,2.5,4.7,3.1v-1.8
		C89.8,20.1,87.3,17.8,86.7,15.8z M89.2,10v4.1h-2.6V10H89.2z M82.2,10h2.6v4.1h-2.6V10z"/>
	<polygon class="st0" points="99,11.3 107,5.1 107,8.1 108.7,8.1 108.7,5.1 116.7,11.3 116.8,11.2 116.8,9.2 110.4,4.2 115.6,4.2
		115.6,2.5 108.7,2.5 108.7,0 107,0 107,2.5 100.2,2.5 100.2,4.2 105.4,4.2 99,9.2 99,11.2 	"/>
	<path class="st0" d="M139,8.3l2.3-2.3l-1.2-1.2l-2.4,2.4c-0.5-0.4-0.9-0.9-1.3-1.4l2.5-2.5l-1.2-1.2l-2.4,2.4
		c-0.9-1.2-1.6-2.4-2-3.5l-0.2-0.6H128v1.7h3.3c-0.7,1.5-1.9,3-3.2,4.3l-2.4-2.4l-1.2,1.2l2.4,2.4c-1.1,1-2.2,1.8-3.2,2.5v2
		c1.9-1.1,3.9-2.7,5.6-4.5c1-1.1,2.3-2.6,3.3-4.3c1.9,3.5,5.8,7,8.9,8.8v-2C140.7,9.6,139.8,9,139,8.3z"/>
	<path class="st0" d="M135.8,17.9h2.9v-6.3h-12.3v6.3h2.9v2.9h-5.7v1.7h17.8v-1.7h-5.7V17.9z M128.1,13.4h8.9v2.9h-8.9V13.4z
		 M131,17.9h3.1v2.9H131V17.9z"/>
	<polygon class="st0" points="150,18.8 150,12.5 148.3,12.5 148.3,18.8 148.3,18.8 	"/>
	<rect x="153.9" y="12.5" class="st0" width="1.7" height="4.3"/>
	<polygon class="st0" points="163.9,1.4 157.8,1.4 157.8,3.1 162.2,3.1 162.2,5.4 157.8,5.4 157.8,7.1 162.2,7.1 162.2,8.2
		163.9,8.2 	"/>
	<path class="st0" d="M163.6,16.6l2.7-3.6l-1.3-1l-2.2,3c-0.5-1-0.9-2.1-1.1-3.3v-0.6h4.5V9.4h-2.2v0h-1.7v0h-6.7v1.7h4.5v4.5
		l-3.3,3.1v2.3l3.3-3.1v3.6h-3.3h0v1.2v0.5h4.9v-6.5c1.1,2,2.4,3.7,3.5,4.8h2.4C166.2,20.2,164.8,18.5,163.6,16.6z"/>
	<rect x="157" y="12.6" transform="matrix(0.8626 -0.5058 0.5058 0.8626 14.686 81.7669)" class="st0" width="1.7" height="2.5"/>
	<path class="st0" d="M152.8,19.1V9.8h1.6V8.1h-1.6v-1h2.3V5.6c0.3,0.2,0.7,0.4,1,0.6V4.2c-1.1-0.8-2.5-2.2-3.1-3.3l-0.2-0.4h-1.5
		l-0.2,0.5c-0.6,1.1-2.1,3.3-3.3,4.8v2.5c0.3-0.3,0.7-0.7,1.1-1.2h2.4v1h-2v1.7h2v10l-2.8,1.1v1.8l7.2-2.8v-1.8L152.8,19.1z
		 M152,2.5c0.8,1.1,1.9,2.2,2.9,2.9H150C150.8,4.4,151.5,3.4,152,2.5z"/>
	<polygon class="st0" points="78,6.2 79.3,6.2 79.3,4.7 79.3,4.6 77.7,4.6 77.7,0.5 76,0.5 76,4.6 73.2,4.6 73.2,6.2 75.7,6.2
		72.4,16.9 74.2,16.9 76,11 76,23.1 77.7,23.1 77.7,10 78.7,12.8 80.5,12.8 79.1,9 	"/>
	<polygon class="st0" points="32.6,22.2 32.5,22.4 34.5,22.4 36.7,18.5 36.7,7 40,7 40,21.4 36.7,21.4 36.7,23.1 41.7,23.1
		41.7,5.3 36.7,5.3 36.7,0.5 35,0.5 35,5.3 33.8,5.3 33.8,7 35,7 35,18.1 33.8,20.2 	"/>
	<path class="st0" d="M115.5,34c-1,0.8-2.3,1.4-3.5,1.5v1c1.2-0.2,2.5-0.7,3.6-1.4v4.8h1v-5.6c1-0.9,1.8-2.1,2-3.6h-1
		C117.3,32.3,116.3,33.4,115.5,34z"/>
	<rect x="93.9" y="30.8" class="st0" width="1" height="9.2"/>
	<polygon class="st0" points="122.8,34.2 122.8,30.8 121.8,30.8 121.8,39.9 122.8,39.9 122.8,35.2 127,36.8 127,35.7 	"/>
	<rect x="55.5" y="33.7" class="st0" width="3.9" height="1"/>
	<polygon class="st0" points="57.9,30.1 57,30.1 53.2,33.7 53.2,35 57.4,31 57.5,31 61.8,35 61.8,33.7 	"/>
	<path class="st0" d="M54.3,40.3h1V40h4.5v0.4h1v-4.4h-6.4V40.3z M59.7,36.9V39h-4.5v-2.1H59.7z"/>
	<path class="st0" d="M71.8,30.1c-0.9,0-1.6,0.7-1.6,1.6c0,0.2,0,0.4,0.1,0.6h-1.2v-1.9h-1v1.9h-3.5v1h3.5v5.8h-1.7v1h2.7v-6.8h2.7
		c0.9,0,1.6-0.7,1.6-1.6C73.4,30.8,72.7,30.1,71.8,30.1z M71.8,32.3c-0.3,0-0.6-0.3-0.6-0.6s0.3-0.6,0.6-0.6c0.3,0,0.6,0.3,0.6,0.6
		S72.1,32.3,71.8,32.3z"/>
	<polygon class="st0" points="66.5,35.2 65.5,35.2 64.5,38.3 65.5,38.3 	"/>
	<polygon class="st0" points="71.8,35.2 70.8,35.2 71.7,38.3 72.7,38.3 	"/>
	<rect x="75.1" y="35.1" class="st0" width="6.9" height="1"/>
	<path class="st0" d="M109.9,32.3h-1.1v-1.9h-1v1.9H105v-1.9h-1v1.9h-1.1v1h1.1v2.6h1v-2.6h2.7v2.1c0,2.3-1.1,3.2-2,3.6v1
		c0.9-0.3,2.9-1.4,2.9-4.7v-2.1h1.1V32.3z"/>
	<path class="st0" d="M86.9,30.4h-1l-1.5,4.8h1l0.9-2.8h3.5V34c0,0.7-0.1,1.4-0.4,2.1l-2.9-1.6l-0.5,0.8l3,1.7
		c-0.7,1.2-1.7,2.1-3,2.1v1c2.3,0,4.8-2.4,4.8-6.1v-2.5h-4.2L86.9,30.4z"/>
	<path class="st0" d="M97.8,38.9v-8.2h-1V40h0.5c0.7,0,1.5-0.5,2.2-1.3c0.6-0.6,1.2-1.8,1.2-3.4h-1C99.8,37.3,98.6,38.5,97.8,38.9z"
		/>
	<polygon class="st0" points="44.7,39.6 45.7,39.6 46.3,37.5 45.3,37.5 	"/>
	<polygon class="st0" points="47.1,35 50.1,35 49.4,32.9 48.4,32.9 48.8,34.1 47.4,34.1 48,32 47,32 46.1,35 47.1,35 	"/>
	<polygon class="st0" points="49.4,39.5 47.7,39.5 47.7,36 47.3,36 46.8,36 46.8,37.5 46.8,40.5 50.3,40.5 50.3,38.4 49.4,38.4 	"/>
	<polygon class="st0" points="47.5,30.7 46.7,30.1 45.5,31.7 46.3,32.3 46.7,31.8 47.3,30.9 	"/>
	<rect x="48.6" y="36" class="st0" width="1" height="1.1"/>
	<rect x="50.1" y="36" class="st0" width="1" height="1.1"/>
	<polygon class="st0" points="45.3,35 45.3,33.6 44.4,33.6 44.4,34.1 42.9,34.1 44.1,32.5 42.9,31.6 44,30.2 42.8,30.2 41.6,31.8
		42.8,32.7 41.7,34.1 41.2,34.1 41.2,35 42.8,35 42.8,40.3 43.8,40.3 43.8,35 	"/>
	<polygon class="st0" points="40.6,38.4 41.6,38.4 42.3,36 41.3,36 	"/>
	<rect x="44.4" y="36" class="st0" width="1" height="1.5"/>
	<polygon class="st0" points="49.7,32.2 50.3,31.7 49.1,30.1 48.4,30.7 49.2,31.8 49.6,32.3 	"/>
</g>
</svg>
