<svg xmlns="http://www.w3.org/2000/svg" width="31.521" height="36" viewBox="0 0 31.521 36"><path d="M38.085,55.465c0-1.155,6.977-2.091,12.029-2.091s11.429.936,11.429,2.091-6.377,2.092-11.429,2.092-12.029-.937-12.029-2.092" transform="translate(-33.29 -21.558)" fill="#9fa0a0"/><path d="M36.775,28.068c0,5.121,3.081,10.075,7.579,11.918.136.056.108.212-.039.217A12.013,12.013,0,0,1,32,28.267,12.4,12.4,0,0,1,44.032,16.106c.147,0,.184.151.051.214a12.8,12.8,0,0,0-7.308,11.748" transform="translate(-32 -13.658)" fill="#82c1ea"/><path d="M46.616,39.143A12.815,12.815,0,0,1,40.024,23.86c.046-.141.209-.121.22.028a11,11,0,0,0,3.641,7.54A10.506,10.506,0,0,0,59.513,17.584c-.084-.118.017-.232.145-.164,5.155,2.749,6.9,10.059,4.132,15.735a12.86,12.86,0,0,1-17.174,5.988" transform="translate(-33.575 -13.933)" fill="#82c1ea"/><path d="M60.024,19.367c0,3.248-2.88,6.625-7.663,6.456-.141-.006-.18-.157-.05-.213a5.772,5.772,0,0,0,3.218-7.12,6.438,6.438,0,0,0-6.788-4.337c-.146.016-.173-.146-.045-.215a9.357,9.357,0,0,1,4.2-.938c3.947,0,7.131,2.858,7.131,6.367" transform="translate(-35.522 -13)" fill="#ec6d74"/><path d="M57.606,26.352a7.637,7.637,0,0,0,2.645-4.028c.039-.139.2-.115.217.028.365,3.359-.459,6.238-2.876,8.415a8.659,8.659,0,0,1-12.229-.641,8.526,8.526,0,0,1,.174-11.672c.1-.1.234-.033.192.1a7.248,7.248,0,0,0,1.382,6.883,7.448,7.448,0,0,0,10.494.918" transform="translate(-34.361 -14.146)" fill="#82c1ea"/></svg>