<?xml version="1.0" encoding="UTF-8"?>
<svg id="b" data-name="レイヤー 2" xmlns="http://www.w3.org/2000/svg" xmlns:xlink="http://www.w3.org/1999/xlink" viewBox="0 0 222 44">
  <defs>
    <style>
      .f {
        fill: none;
      }

      .g {
        fill: #ec6d74;
      }

      .h {
        fill: #fff;
      }

      .i {
        fill: #9fa0a0;
      }

      .j {
        fill: #82c1ea;
      }

      .k {
        clip-path: url(#d);
      }
    </style>
    <clipPath id="d">
      <rect id="e" data-name="長方形 34590" class="f" width="222" height="44"/>
    </clipPath>
  </defs>
  <g id="c" data-name="UI">
    <g class="k">
      <path class="i" d="M6.46,41.44c0-1.41,8.53-2.56,14.7-2.56s13.97,1.14,13.97,2.56-7.79,2.56-13.97,2.56-14.7-1.14-14.7-2.56"/>
      <path class="j" d="M6.43,17.61c0,6.26,3.77,12.31,9.26,14.57,.17,.07,.13,.26-.05,.27-8.79,.29-15.05-7.07-15.05-14.59S6.8,3.18,15.3,2.99c.18,0,.23,.18,.06,.26-5.84,2.85-8.93,8.37-8.93,14.36"/>
      <path class="j" d="M16.54,30.81c-7.3-3.56-10.29-11.97-8.06-18.68,.06-.17,.26-.15,.27,.03,.24,3.36,1.59,6.63,4.45,9.22,5.26,4.75,13.39,4.32,18.13-.95,4.08-4.54,4.34-11.18,.97-15.97-.1-.15,.02-.28,.18-.2,6.3,3.36,8.43,12.29,5.05,19.23-3.82,7.83-13.22,11.11-20.99,7.32"/>
      <path class="g" d="M30.55,7.78c0,3.97-3.52,8.1-9.37,7.89-.17,0-.22-.19-.06-.26,3.57-1.52,4.97-5.32,3.93-8.7-1.02-3.33-4.56-5.71-8.3-5.3-.18,.02-.21-.18-.05-.26,1.56-.85,3.66-1.15,5.13-1.15,4.82,0,8.72,3.49,8.72,7.78"/>
      <path class="j" d="M29.01,14.92c1.57-1.31,2.62-2.75,3.23-4.92,.05-.17,.25-.14,.27,.04,.45,4.1-.56,7.62-3.51,10.28-4.34,3.91-11.03,3.56-14.95-.78-3.56-3.95-3.76-10.37,.21-14.27,.12-.12,.29-.04,.23,.12-.96,3.03-.2,6.16,1.69,8.41,3.23,3.85,8.97,4.35,12.83,1.12"/>
      <g>
        <path class="h" d="M155.55,11.53v11.56h-2.77v1.69h17.82v-1.69h-2.77V11.53h-12.28Zm10.59,7.71h-8.91v-2.17h8.91v2.17Zm0-6.02v2.17h-8.91v-2.17h8.91Zm-8.91,7.71h8.91v2.17h-8.91v-2.17Z"/>
        <path class="h" d="M62.48,2.26h-1.69v3.01h-6.98V25.37h1.69v-1.08h12.28v1.08h1.69V5.27h-6.98V2.26Zm5.3,20.35h-12.28v-4.09h11.08v-1.69h-11.08v-4.09h11.08v-1.69h-11.08V6.95h12.28v15.65Z"/>
        <path class="h" d="M86.44,24.01v-1.7l-3.37,.45v-1.36h3.37v-1.69h-3.37v-1.44h3.37V9.84h-3.37v-1.44h3.37v-1.69h-3.37v-1.43c1.04-.17,2.36-.41,3.37-.7v-1.77c-1.71,.62-6.5,1.3-8.91,1.36v1.69c.98-.03,2.37-.15,3.85-.34v1.19h-3.37v1.69h3.37v1.44h-3.37v8.43h3.37v1.44h-3.37v1.69h3.37v1.59l-3.85,.51v1.7l8.91-1.18Zm-3.37-7.43v-1.69h1.69v1.69h-1.69Zm1.69-5.06v1.69h-1.69v-1.69h1.69Zm-3.37,0v1.69h-1.69v-1.69h1.69Zm-1.69,5.06v-1.69h1.69v1.69h-1.69Z"/>
        <path class="h" d="M110.4,25.85h1.69v-3.97h8.07v-1.69h-8.07v-2.17h6.5V8.15h-6.5v-2.17h6.86v-1.69h-6.86V2.26h-1.69v2.05h-6.86v1.69h6.86v2.17h-6.5v9.87h6.5v2.17h-8.07v1.69h8.07v3.97Zm6.5-16.01v6.5h-4.82v-2.41h3.61v-1.69h-3.61v-2.41h4.82Zm-6.5,0v2.41h-4.82v-2.41h4.82Zm-4.82,6.5v-2.41h4.82v2.41h-4.82Z"/>
        <rect class="h" x="183.48" y="10.32" width="5.78" height="1.69"/>
        <polygon class="h" points="140.26 2.26 138.81 2.26 133.15 8.21 133.15 10.66 139.53 3.94 145.91 10.66 145.91 8.21 140.26 2.26"/>
        <path class="h" d="M140.51,18.03h4.2v-7.46h-4.33v-1.69h2.05v-1.69h-5.78v1.69h2.05v1.69h-4.33v7.46h4.2c-.59,2.02-3.09,4.29-5.41,5.33v1.82c1.61-.58,3.37-1.74,4.73-3.1,.69-.69,1.24-1.4,1.65-2.11,.41,.71,.96,1.42,1.65,2.11,1.36,1.37,3.12,2.52,4.73,3.1v-1.82c-2.32-1.04-4.82-3.31-5.41-5.33Zm2.52-5.78v4.09h-2.65v-4.09h2.65Zm-6.98,0h2.65v4.09h-2.65v-4.09Z"/>
        <polygon class="h" points="152.81 13.52 160.84 7.34 160.84 10.32 162.53 10.32 162.53 7.34 170.56 13.52 170.59 13.48 170.59 11.42 164.16 6.47 169.39 6.47 169.39 4.78 162.53 4.78 162.53 2.26 160.84 2.26 160.84 4.78 153.98 4.78 153.98 6.47 159.21 6.47 152.78 11.42 152.78 13.48 152.81 13.52"/>
        <path class="h" d="M192.82,10.6l2.33-2.33-1.19-1.19-2.39,2.39c-.46-.44-.9-.89-1.32-1.36l2.5-2.5-1.19-1.19-2.39,2.39c-.9-1.17-1.61-2.37-2-3.51l-.2-.57h-5.18v1.69h3.3c-.73,1.46-1.87,2.96-3.2,4.33l-2.4-2.4-1.19,1.19,2.38,2.38c-1.05,.96-2.16,1.81-3.23,2.49v1.97c1.87-1.06,3.91-2.67,5.64-4.45,1.05-1.08,2.34-2.6,3.27-4.31,1.92,3.52,5.76,6.98,8.91,8.76v-1.97c-.81-.52-1.64-1.13-2.46-1.82Z"/>
        <path class="h" d="M189.62,20.19h2.89v-6.26h-12.28v6.26h2.89v2.89h-5.66v1.69h17.82v-1.69h-5.66v-2.89Zm-7.71-4.57h8.91v2.89h-8.91v-2.89Zm2.89,4.57h3.13v2.89h-3.13v-2.89Z"/>
        <polygon class="h" points="203.82 21.04 203.82 14.78 202.14 14.78 202.14 21.04 202.14 21.04 203.82 21.04"/>
        <rect class="h" x="207.68" y="14.78" width="1.69" height="4.33"/>
        <polygon class="h" points="217.73 3.7 211.59 3.7 211.59 5.39 216.04 5.39 216.04 7.67 211.59 7.67 211.59 9.36 216.04 9.36 216.04 10.44 217.73 10.44 217.73 3.7"/>
        <path class="h" d="M217.45,18.88l2.69-3.59-1.35-1.01-2.22,2.96c-.49-1.05-.87-2.14-1.08-3.26v-.64h4.45v-1.69h-2.23s-1.69,0-1.69,0h0s-6.68,0-6.68,0v1.69h4.45v4.45l-3.25,3.08v2.32l3.25-3.08v3.58h-3.25v1.69h4.94v-6.5c1.09,2.03,2.44,3.69,3.5,4.82h2.4c-1.34-1.21-2.79-2.89-3.95-4.81Z"/>
        <rect class="h" x="210.85" y="14.84" width="1.69" height="2.51" transform="translate(20.94 109.3) rotate(-30.39)"/>
        <path class="h" d="M206.59,21.38V12.01h1.57v-1.69h-1.57v-.96h2.29v-1.55c.35,.24,.68,.44,.96,.57v-1.95c-1.08-.76-2.47-2.19-3.13-3.29l-.25-.41h-1.48l-.23,.46c-.56,1.1-2.05,3.25-3.34,4.83v2.53c.33-.32,.7-.73,1.09-1.2h2.4v.96h-2.05v1.69h2.05v10.01l-2.77,1.06v1.8l7.22-2.76v-1.8l-2.77,1.06Zm-.8-16.59c.82,1.1,1.92,2.16,2.9,2.88h-4.86c.75-1,1.46-2.04,1.96-2.88Z"/>
        <polygon class="h" points="131.84 8.49 133.15 8.49 133.15 6.96 133.15 6.81 131.47 6.81 131.47 2.74 129.78 2.74 129.78 6.81 127.01 6.81 127.01 8.49 129.48 8.49 126.23 19.11 128 19.11 129.78 13.28 129.78 25.37 131.47 25.37 131.47 12.3 132.49 15.02 134.29 15.02 132.89 11.3 131.84 8.49"/>
        <polygon class="h" points="86.44 24.49 86.35 24.65 88.29 24.65 90.53 20.78 90.53 9.24 93.78 9.24 93.78 23.69 90.53 23.69 90.53 25.37 95.47 25.37 95.47 7.55 90.53 7.55 90.53 2.74 88.85 2.74 88.85 7.55 87.64 7.55 87.64 9.24 88.85 9.24 88.85 20.33 87.64 22.41 86.44 24.49"/>
        <path class="h" d="M169.3,36.29c-1.02,.8-2.27,1.35-3.46,1.54v.97c1.2-.16,2.5-.66,3.64-1.45v4.82h.96v-5.6c1-.94,1.77-2.14,2.05-3.56h-.99c-.37,1.56-1.39,2.63-2.2,3.27Z"/>
        <rect class="h" x="147.75" y="33.02" width=".96" height="9.16"/>
        <polygon class="h" points="176.62 36.42 176.62 33.02 175.65 33.02 175.65 42.17 176.62 42.17 176.62 37.45 180.79 39.03 180.79 38 176.62 36.42"/>
        <rect class="h" x="109.33" y="35.95" width="3.9" height=".96"/>
        <polygon class="h" points="111.72 32.32 110.85 32.32 107 35.92 107 37.24 111.23 33.28 111.34 33.28 115.56 37.24 115.56 35.92 111.72 32.32"/>
        <path class="h" d="M108.09,42.61h.96v-.39h4.45v.39h.96v-4.44h-6.38v4.44Zm5.42-3.47v2.12h-4.45v-2.12h4.45Z"/>
        <path class="h" d="M125.61,32.32c-.88,0-1.59,.71-1.59,1.59,0,.22,.05,.44,.13,.63h-1.23v-1.9h-.96v1.9h-3.53v.96h3.53v5.81h-1.71v.96h2.67v-6.77h2.69c.88,0,1.59-.71,1.59-1.59s-.71-1.59-1.59-1.59Zm0,2.22c-.35,0-.63-.28-.63-.63s.28-.63,.63-.63,.63,.28,.63,.63-.28,.63-.63,.63Z"/>
        <polygon class="h" points="120.28 37.46 119.27 37.46 118.33 40.55 119.34 40.55 120.28 37.46"/>
        <polygon class="h" points="125.62 37.46 124.61 37.46 125.55 40.55 126.56 40.55 125.62 37.46"/>
        <rect class="h" x="128.89" y="37.36" width="6.93" height=".96"/>
        <path class="h" d="M163.67,34.54h-1.14v-1.9h-.96v1.9h-2.72v-1.9h-.96v1.9h-1.14v.96h1.14v2.55h.96v-2.55h2.72v2.12c0,2.25-1.1,3.21-1.96,3.62v1.04c.93-.33,2.92-1.42,2.92-4.66v-2.12h1.14v-.96Z"/>
        <path class="h" d="M140.67,32.64h-1.01l-1.48,4.82h1.01l.86-2.82h3.52v1.57c0,.69-.13,1.41-.37,2.08l-2.87-1.61-.47,.84,2.95,1.66c-.67,1.23-1.74,2.14-3.04,2.14v.96c2.3,0,4.76-2.44,4.76-6.07v-2.54h-4.19l.32-1.04Z"/>
        <path class="h" d="M151.64,41.18v-8.16h-.96v9.26h.48c.68,0,1.54-.49,2.19-1.26,.55-.65,1.21-1.77,1.21-3.45h-.96c0,1.98-1.15,3.22-1.96,3.61Z"/>
        <polygon class="h" points="98.52 41.85 99.53 41.85 100.16 39.79 99.15 39.79 98.52 41.85"/>
        <polygon class="h" points="100.92 37.29 103.92 37.29 103.26 35.13 102.25 35.13 102.61 36.33 101.22 36.33 101.85 34.26 100.84 34.26 99.92 37.29 100.92 37.29 100.92 37.29"/>
        <polygon class="h" points="103.16 41.74 101.53 41.74 101.53 38.27 101.12 38.27 100.56 38.27 100.56 39.79 100.56 42.71 104.13 42.71 104.13 40.65 103.16 40.65 103.16 41.74"/>
        <polygon class="h" points="101.31 32.92 100.54 32.35 99.34 33.99 100.12 34.55 100.49 34.05 101.12 33.18 101.31 32.92"/>
        <rect class="h" x="102.41" y="38.27" width=".96" height="1.08"/>
        <rect class="h" x="103.92" y="38.27" width=".96" height="1.08"/>
        <polygon class="h" points="99.14 37.29 99.14 35.83 98.18 35.83 98.18 36.33 96.73 36.33 97.94 34.74 96.73 33.86 97.77 32.42 96.58 32.42 95.39 34.07 96.58 34.94 95.53 36.33 95.01 36.33 95.01 37.29 96.66 37.29 96.66 42.61 97.63 42.61 97.63 37.29 99.14 37.29"/>
        <polygon class="h" points="94.42 40.65 95.43 40.65 96.16 38.27 95.15 38.27 94.42 40.65"/>
        <rect class="h" x="98.18" y="38.27" width=".96" height="1.52"/>
        <polygon class="h" points="103.47 34.47 104.14 33.99 102.95 32.35 102.17 32.92 102.99 34.05 103.36 34.55 103.47 34.47"/>
      </g>
    </g>
  </g>
</svg>
