<svg xmlns="http://www.w3.org/2000/svg" xmlns:xlink="http://www.w3.org/1999/xlink" width="24" height="24" viewBox="0 0 24 24"><defs><clipPath id="a"><rect width="18" height="16" fill="none"/></clipPath></defs><g transform="translate(-192 -707)"><rect width="24" height="24" rx="4" transform="translate(192 707)" fill="#1c61be"/><g transform="translate(195 711)"><g clip-path="url(#a)"><path d="M16,5.5h-.17l-.34-3.68A2,2,0,0,0,13.5,0h-9A2,2,0,0,0,2.51,1.82L2.17,5.5H2a2.006,2.006,0,0,0-2,2v4a2.006,2.006,0,0,0,2,2h.5v1a1.5,1.5,0,0,0,3,0v-1h7v1a1.5,1.5,0,0,0,3,0v-1H16a2.006,2.006,0,0,0,2-2v-4a2.006,2.006,0,0,0-2-2M4.5,2h9l.41,4.5H4.09ZM16,11.5H2v-4H16Z" fill="#fff"/><path d="M4.5,10.5a1,1,0,1,0-1-1,1,1,0,0,0,1,1" fill="#fff"/><path d="M13.5,10.5a1,1,0,1,0-1-1,1,1,0,0,0,1,1" fill="#fff"/></g></g></g></svg>