<svg id="chat" xmlns="http://www.w3.org/2000/svg" width="16" height="16" viewBox="0 0 16 16">
  <g id="Union_1" data-name="Union 1" transform="translate(0 1)" fill="none">
    <path d="M3,10.682A5.6,5.6,0,0,1,0,6C0,2.686,3.58,0,8,0s8,2.686,8,6-3.58,6-8,6c-.311,0-.619-.014-.922-.039L3,14Z" stroke="none"/>
    <path d="M 4.998050212860107 10.76254367828369 L 6.683499813079834 9.919010162353516 L 7.243380069732666 9.96597957611084 C 7.497000217437744 9.987259864807129 7.750909805297852 9.998049736022949 7.998050212860107 9.998049736022949 C 11.25144004821777 9.998049736022949 14 8.165379524230957 14 5.996089935302734 C 14 3.829989910125732 11.25144004821777 2 7.998050212860107 2 C 4.746769905090332 2 2 3.829989910125732 2 5.996089935302734 C 2 7.10906982421875 2.739510059356689 8.19221019744873 4.02892017364502 8.967789649963379 L 4.998050212860107 9.55070972442627 L 4.998050212860107 10.76254367828369 M 2.998049974441528 14 L 2.998049974441528 10.68163967132568 C 1.169919967651367 9.582030296325684 0 7.892580032348633 0 5.996089935302734 C 0 2.685549974441528 3.580080032348633 -8.881784197001252e-16 7.998050212860107 -8.881784197001252e-16 C 12.41991996765137 -8.881784197001252e-16 16 2.685549974441528 16 5.996089935302734 C 16 9.3125 12.41991996765137 11.99804973602295 7.998050212860107 11.99804973602295 C 7.6875 11.99804973602295 7.378910064697266 11.98437976837158 7.076169967651367 11.95897960662842 L 2.998049974441528 14 Z" stroke="none" fill="#fff"/>
  </g>
  <g id="Group_26847" data-name="Group 26847" transform="translate(4 6)">
    <circle id="Ellipse_409" data-name="Ellipse 409" cx="1" cy="1" r="1" transform="translate(3)" fill="#fff"/>
    <circle id="Ellipse_410" data-name="Ellipse 410" cx="1" cy="1" r="1" fill="#fff"/>
    <circle id="Ellipse_411" data-name="Ellipse 411" cx="1" cy="1" r="1" transform="translate(6)" fill="#fff"/>
  </g>
  <rect id="Rectangle_27647" data-name="Rectangle 27647" width="16" height="16" fill="none"/>
</svg>
