<svg xmlns="http://www.w3.org/2000/svg" width="16" height="16" viewBox="0 0 16 16"><g fill="#ec6d74" stroke="#ec6d74" stroke-width="2"><circle cx="8" cy="8" r="8" stroke="none"/><circle cx="8" cy="8" r="7" fill="none"/></g><g transform="translate(5775 -2426)"><path d="M-5767,2437.959a.891.891,0,0,1-.649-.269.863.863,0,0,1-.267-.647.853.853,0,0,1,.267-.642.893.893,0,0,1,.649-.267.886.886,0,0,1,.637.267.873.873,0,0,1,.279.642.877.877,0,0,1-.132.46.983.983,0,0,1-.334.332A.862.862,0,0,1-5767,2437.959Zm.847-7.918-.148,5.475h-1.4l-.152-5.475Z" fill="#fff"/></g></svg>