<svg xmlns="http://www.w3.org/2000/svg" xmlns:xlink="http://www.w3.org/1999/xlink" width="24" height="24" viewBox="0 0 24 24"><defs><clipPath id="a"><rect width="24" height="24" transform="translate(948 1614)" fill="none"/></clipPath></defs><g transform="translate(-948 -1614)" clip-path="url(#a)"><path d="M9,2a7,7,0,1,0,7,7A7.008,7.008,0,0,0,9,2M9,0A9,9,0,1,1,0,9,9,9,0,0,1,9,0Z" transform="translate(951 1617)" fill="#1c61be"/><path d="M3.5,1c-.483,0-1.1.685-1.559,1.744A13.533,13.533,0,0,0,1,8a13.533,13.533,0,0,0,.941,5.256C2.4,14.315,3.017,15,3.5,15s1.1-.685,1.559-1.744A13.533,13.533,0,0,0,6,8a13.533,13.533,0,0,0-.941-5.256C4.6,1.685,3.983,1,3.5,1m0-1C5.433,0,7,3.582,7,8s-1.567,8-3.5,8S0,12.418,0,8,1.567,0,3.5,0Z" transform="translate(956.5 1618)" fill="#1c61be"/><path d="M18,.5H0v-1H18Z" transform="translate(951 1626)" fill="#1c61be"/></g></svg>