<svg id="help" xmlns="http://www.w3.org/2000/svg" width="16" height="16" viewBox="0 0 16 16">
  <g id="Ellipse_438" data-name="Ellipse 438" fill="none" stroke="#1c61be" stroke-width="2">
    <circle cx="8" cy="8" r="8" stroke="none"/>
    <circle cx="8" cy="8" r="7" fill="none"/>
  </g>
  <path id="Path_28031" data-name="Path 28031" d="M7.069,9.564V9.435a4.022,4.022,0,0,1,.12-1.062,1.583,1.583,0,0,1,.341-.639,2.628,2.628,0,0,1,.54-.442,3.474,3.474,0,0,0,.423-.316,1.37,1.37,0,0,0,.3-.363.914.914,0,0,0,.11-.447A.83.83,0,0,0,8.438,5.4a1.025,1.025,0,0,0-.467-.107A1.05,1.05,0,0,0,7.5,5.4a.911.911,0,0,0-.361.32.986.986,0,0,0-.152.523H5.437A2.25,2.25,0,0,1,5.8,4.988a2.119,2.119,0,0,1,.917-.743A3.171,3.171,0,0,1,7.979,4a3.382,3.382,0,0,1,1.34.249,2.1,2.1,0,0,1,.913.722,1.927,1.927,0,0,1,.331,1.137,2.013,2.013,0,0,1-.146.79,1.925,1.925,0,0,1-.409.609,3.076,3.076,0,0,1-.621.478,2.44,2.44,0,0,0-.493.373,1.228,1.228,0,0,0-.285.449,1.887,1.887,0,0,0-.1.628v.129ZM7.823,12a.883.883,0,0,1-.649-.268.864.864,0,0,1-.264-.645.855.855,0,0,1,.264-.64.909.909,0,0,1,1.285,0,.873.873,0,0,1,.146,1.1.968.968,0,0,1-.333.331A.851.851,0,0,1,7.823,12" fill="#1c61be" stroke="rgba(0,0,0,0)" stroke-width="1"/>
</svg>
