<svg xmlns="http://www.w3.org/2000/svg" xmlns:xlink="http://www.w3.org/1999/xlink" width="24" height="24" viewBox="0 0 24 24"><defs><clipPath id="a"><rect width="14.003" height="16.897" transform="translate(0 0.001)" fill="#fff"/></clipPath></defs><g transform="translate(-192 -894)"><rect width="24" height="24" rx="4" transform="translate(192 894)" fill="#1c61be"/><g transform="translate(196.999 897.552)"><g transform="translate(0 -0.001)" clip-path="url(#a)"><path d="M7,2a5,5,0,0,1,3.532,8.533L7,14.069,3.461,10.533A5,5,0,0,1,7,2M7,0A7,7,0,0,0,2.047,11.948L7,16.9l4.95-4.949A7,7,0,0,0,7,0" fill="#fff"/><path d="M7,9.5a2.5,2.5,0,1,1,2.5-2.5A2.485,2.485,0,0,1,7,9.5m.006-4A1.5,1.5,0,0,0,5.505,7a1.476,1.476,0,0,0,.431,1.056A1.5,1.5,0,1,0,7.008,5.5" fill="#fff"/></g></g></g></svg>