<svg xmlns="http://www.w3.org/2000/svg" xmlns:xlink="http://www.w3.org/1999/xlink" width="24" height="24" viewBox="0 0 24 24"><defs><clipPath id="a"><rect width="24" height="24" transform="translate(159 989)" fill="none"/></clipPath></defs><g transform="translate(-159 -989)" clip-path="url(#a)"><g transform="translate(6448 -501)"><path d="M-6277,1494.5a5.983,5.983,0,0,0-4.248,1.755,6.018,6.018,0,0,0,0,8.483l4.242,4.242,4.245-4.245a5.939,5.939,0,0,0,1.76-4.23,5.966,5.966,0,0,0-1.763-4.251A5.953,5.953,0,0,0-6277,1494.5m0-2a7.968,7.968,0,0,1,5.652,2.34,7.985,7.985,0,0,1,0,11.312l-5.657,5.656-5.656-5.656a8.008,8.008,0,0,1,0-11.312A8,8,0,0,1-6277,1492.5Z" fill="#1c61be"/></g><path d="M3,1A2,2,0,1,0,5,3,2,2,0,0,0,3,1M3,0A3,3,0,1,1,0,3,3,3,0,0,1,3,0Z" transform="translate(168 996.5)" fill="#1c61be"/></g></svg>