<svg xmlns="http://www.w3.org/2000/svg" xmlns:xlink="http://www.w3.org/1999/xlink" width="16" height="16" viewBox="0 0 16 16"><defs><clipPath id="a"><rect width="16" height="16" fill="none"/></clipPath></defs><path d="M15,13v1H0v1H16V13Z" fill="#ec6d74"/><path d="M0,1V3H1V2H16V1Z" fill="#ec6d74"/><g clip-path="url(#a)"><path d="M0,11.174V4.827H2.5a2.555,2.555,0,0,1,1.23.274,1.891,1.891,0,0,1,.777.76,2.265,2.265,0,0,1,.267,1.117,2.244,2.244,0,0,1-.272,1.116,1.894,1.894,0,0,1-.789.753,2.671,2.671,0,0,1-1.247.269H.874V8.04H2.253a1.352,1.352,0,0,0,.64-.134.883.883,0,0,0,.378-.375A1.183,1.183,0,0,0,3.4,6.978a1.169,1.169,0,0,0-.125-.553.866.866,0,0,0-.38-.37,1.4,1.4,0,0,0-.645-.131h-.9v5.25Z" fill="#ec6d74"/><path d="M7.86,11.174H5.61V4.827H7.879a3.373,3.373,0,0,1,1.648.38A2.584,2.584,0,0,1,10.592,6.3a3.6,3.6,0,0,1,.374,1.7A3.63,3.63,0,0,1,10.592,9.7a2.586,2.586,0,0,1-1.069,1.093,3.4,3.4,0,0,1-1.663.382m-.908-1.15H7.8a2.16,2.16,0,0,0,1-.212,1.368,1.368,0,0,0,.614-.66,2.8,2.8,0,0,0,.206-1.158,2.765,2.765,0,0,0-.206-1.15,1.362,1.362,0,0,0-.612-.657,2.164,2.164,0,0,0-1-.211H6.952Z" fill="#ec6d74"/><path d="M11.8,11.174V4.827H16V5.933H13.14V7.446h2.581V8.552H13.14v2.622Z" fill="#ec6d74"/></g></svg>