<svg xmlns="http://www.w3.org/2000/svg" width="24" height="24" viewBox="0 0 24 24"><rect width="24" height="24" fill="none"/><g transform="translate(4523.291 -1489.791)"><path d="M-4516.817,1494.954l2.648,2.649,0,.008-.457.457-1.415,1.414,1.415,1.415,4.233,4.233,1.414,1.414,1.414-1.414.457-.458.008,0,2.648,2.648,0,.008-.814.815a2.551,2.551,0,0,1-1.875.651c-2.089,0-4.795-1.459-7.24-3.9a13.488,13.488,0,0,1-3.738-5.942c-.195-.809-.391-2.3.486-3.173l.814-.814.008,0m.247-2.163a1.015,1.015,0,0,0-.359.066l-1.008.384-1.117,1.117c-2.3,2.3-1.489,7.2,3.253,11.943,3.068,3.067,6.2,4.49,8.654,4.49a4.52,4.52,0,0,0,3.289-1.237l1.117-1.117.384-1.008a1.011,1.011,0,0,0-.23-1.073l-3.555-3.555a1.009,1.009,0,0,0-.713-.3.989.989,0,0,0-.359.066l-1.008.383-.76.761-4.233-4.234.76-.76.383-1.008a1.01,1.01,0,0,0-.229-1.072l-3.555-3.555a1.011,1.011,0,0,0-.714-.3Z" fill="#1c61be"/></g></svg>