<svg xmlns="http://www.w3.org/2000/svg" xmlns:xlink="http://www.w3.org/1999/xlink" width="24" height="24" viewBox="0 0 24 24">
  <defs>
    <clipPath id="clip-path">
      <rect id="Rectangle_26476" data-name="Rectangle 26476" width="24" height="24" fill="#99abc2"/>
    </clipPath>
  </defs>
  <g id="Group_28156" data-name="Group 28156" clip-path="url(#clip-path)">
    <path id="Path_28141" data-name="Path 28141" d="M12,18.5c-5.159,0-9.155-5.689-9.323-5.931a1,1,0,0,1,0-1.138C2.845,11.189,6.841,5.5,12,5.5s9.154,5.689,9.322,5.931a1,1,0,0,1,0,1.138C21.154,12.811,17.159,18.5,12,18.5M4.758,12c1.07,1.325,3.976,4.5,7.242,4.5s6.172-3.175,7.241-4.5C18.172,10.675,15.266,7.5,12,7.5S5.828,10.675,4.758,12" fill="#99abc2"/>
    <path id="Path_28142" data-name="Path 28142" d="M12,15.5A3.5,3.5,0,0,1,9.525,9.525a3.586,3.586,0,0,1,4.95,0A3.5,3.5,0,0,1,12,15.5m0-5a1.5,1.5,0,0,0-1.061,2.56,1.536,1.536,0,0,0,2.121,0h0A1.5,1.5,0,0,0,12,10.5" fill="#99abc2"/>
  </g>
</svg>
